<svg xmlns="http://www.w3.org/2000/svg" viewBox="0 0 500 500"><rect width="500" height="500" rx="20" fill="#82e97a"/><path d="M186,449.59l90.16-212.24h2l90.16,212.24H330.72L267.44,288.31l23.24-15.68-72.8,177Zm56.56-75.88h69.72l11.2,28H232.72Z" fill="#002605"/><path d="M417.05,277.21q-9.3,0-15.3-5.4a18.06,18.06,0,0,1-6-14.1,18.56,18.56,0,0,1,6-14.25q6-5.55,15.3-5.55t15.3,5.55a18.56,18.56,0,0,1,6,14.25,18.06,18.06,0,0,1-6,14.1Q426.35,277.21,417.05,277.21ZM399.66,303h34.5v147.3h-34.5Z" fill="#002605"/></svg>